<svg id="Capa_1" data-name="Capa 1" xmlns="http://www.w3.org/2000/svg" viewBox="0 0 400 400"><title>Logo</title><path d="M322.14,75.77a6.62,6.62,0,0,1,6.61,6.62V318.15a6.62,6.62,0,0,1-6.61,6.62H77.37a6.63,6.63,0,0,1-6.62-6.62V82.39a6.63,6.63,0,0,1,6.62-6.62H322.14m0-21H77.37A27.63,27.63,0,0,0,49.75,82.39V318.15a27.63,27.63,0,0,0,27.62,27.62H322.14a27.62,27.62,0,0,0,27.61-27.62V82.39a27.62,27.62,0,0,0-27.61-27.62Z"/><path d="M163.85,244.61l-19.16-33.44H139.8v33.44H118.38V156.05H155q10.51,0,17.78,3.64a25.06,25.06,0,0,1,10.9,9.95,28.55,28.55,0,0,1,3.63,14.47A25.71,25.71,0,0,1,182,200.52q-5.32,6.76-15.47,9.27l21,34.82Zm-24-48.1h13.28q6.39,0,9.39-2.82t3-8.33c0-3.5-1-6.26-3.07-8.26s-5.16-3-9.33-3H139.8Z"/><path d="M266.79,164.07q11.08,8.9,14.34,24.05H258.46a20.74,20.74,0,0,0-7.71-9.64A21.51,21.51,0,0,0,238.41,175a18.79,18.79,0,0,0-15.15,6.89q-5.76,6.88-5.76,18.41t5.76,18.35a18.86,18.86,0,0,0,15.15,6.83,21.51,21.51,0,0,0,12.34-3.51,20.88,20.88,0,0,0,7.71-9.52h22.67q-3.25,15-14.34,24t-28,9a44.15,44.15,0,0,1-22.67-5.69,38.68,38.68,0,0,1-15.1-16,54.21,54.21,0,0,1,0-46.84,38.65,38.65,0,0,1,15.1-16,44.15,44.15,0,0,1,22.67-5.7Q255.7,155.18,266.79,164.07Z"/></svg>