<svg id="Capa_1" data-name="Capa 1" xmlns="http://www.w3.org/2000/svg" viewBox="0 0 1940 465"><title>Logo</title><path d="M547,299.76,521.68,257.6h-9.51v42.16H490.56V191.53H531.8q18.86,0,28.74,9.2T570.43,225q0,12.27-6.82,20.54t-19.7,11l27,43.23Zm-34.8-57H530q18.54,0,18.55-16.4,0-7.82-4.53-12.19t-14-4.37H512.17Z"/><path d="M679.43,261.44H617.19q.45,11.34,6.13,16.71a19.7,19.7,0,0,0,14.1,5.36q7.51,0,12.5-3.68a16.28,16.28,0,0,0,6.36-10h22.84a36.45,36.45,0,0,1-7.2,15.94,37.74,37.74,0,0,1-14.18,11,48.57,48.57,0,0,1-41.32-1.3,37.15,37.15,0,0,1-15-15.1Q596,270.64,596,257.3t5.37-23.23a36.55,36.55,0,0,1,15-15.1,45.81,45.81,0,0,1,22.08-5.21q12.57,0,22,5.21a36.79,36.79,0,0,1,14.56,14.34,41.62,41.62,0,0,1,5.14,20.77A41.13,41.13,0,0,1,679.43,261.44ZM653,236.14a20.76,20.76,0,0,0-14.48-5.36,21.27,21.27,0,0,0-14.72,5.36q-6,5.37-6.59,15.79h41.24Q658.88,241.51,653,236.14Z"/><path d="M784.9,223.26q8.75,9.66,8.74,27.14v49.36H772.18V252.85q0-10.11-5.21-15.71t-14.26-5.6q-9.19,0-14.72,6t-5.52,17.17v45.07H710.86V214.83h21.61v17a27.06,27.06,0,0,1,11.12-13.42,33,33,0,0,1,17.86-4.82Q776.17,213.61,784.9,223.26Z"/><path d="M879.64,218.82a27.58,27.58,0,0,1,10.89,13.64V214.83H912v84.93H890.53V282a27.94,27.94,0,0,1-10.89,13.72q-7.67,5.15-18.39,5.14a36.43,36.43,0,0,1-19.32-5.22,35.16,35.16,0,0,1-13.41-15.1q-4.83-9.88-4.83-23.22t4.83-23.23A35.27,35.27,0,0,1,841.93,219a36.52,36.52,0,0,1,19.32-5.21Q872,213.76,879.64,218.82Zm-27.9,20.39q-6.13,6.58-6.13,18.09t6.13,18q6.13,6.53,16.25,6.52a21.44,21.44,0,0,0,16.18-6.67q6.36-6.68,6.36-17.86,0-11.34-6.36-18A21.43,21.43,0,0,0,868,232.62Q857.88,232.62,851.74,239.21Z"/><path d="M992.32,281.21v18.55H981q-14.26,0-21.85-6.89t-7.59-23V233.08h-11.8V214.83h11.8v-21h21.62v21h19v18.25h-19v37.1c0,4.08.82,6.95,2.45,8.58s4.4,2.45,8.28,2.45Z"/><path d="M1084.69,219a38.2,38.2,0,0,1,15.56,15.1q5.67,9.88,5.67,23.23t-5.67,23.15a38.84,38.84,0,0,1-15.56,15.1,49.67,49.67,0,0,1-44.61,0,38.77,38.77,0,0,1-15.56-15.1q-5.68-9.81-5.68-23.15t5.68-23.23a38.14,38.14,0,0,1,15.56-15.1,50.35,50.35,0,0,1,44.61,0Zm-37.64,19.85q-6.29,6.38-6.28,18.48t6.28,18.47a21.66,21.66,0,0,0,30.66,0q6.29-6.36,6.29-18.47t-6.29-18.48a21.66,21.66,0,0,0-30.66,0Z"/><path d="M1267.81,200.88q13.34,10.43,17.63,28.36h-22.69a29.66,29.66,0,0,0-11-13.79q-7.44-5.07-17.86-5.06a28.24,28.24,0,0,0-26.22,16.55,47.22,47.22,0,0,0,0,37.26,28.24,28.24,0,0,0,26.22,16.55q10.42,0,17.86-5.06a29.66,29.66,0,0,0,11-13.79h22.69q-4.29,17.93-17.63,28.36t-33.57,10.42q-15.49,0-27.37-7a47.47,47.47,0,0,1-18.39-19.55,61,61,0,0,1-6.52-28.51q0-16.1,6.52-28.67a47.61,47.61,0,0,1,18.31-19.55q11.81-7,27.45-7Q1254.47,190.46,1267.81,200.88Z"/><path d="M1398.27,214.83v84.93h-21.61V282.59A27.07,27.07,0,0,1,1365.54,296a33,33,0,0,1-17.86,4.83q-14.72,0-23.45-9.66t-8.74-27V214.83H1337v46.91q0,10.13,5.21,15.72t14.11,5.59q9.35,0,14.87-6t5.52-17.17V214.83Z"/><path d="M1512.33,261.44h-62.24q.47,11.34,6.13,16.71a19.7,19.7,0,0,0,14.1,5.36q7.52,0,12.5-3.68a16.28,16.28,0,0,0,6.36-10H1512a36.45,36.45,0,0,1-7.2,15.94,37.74,37.74,0,0,1-14.18,11,48.57,48.57,0,0,1-41.32-1.3,37.15,37.15,0,0,1-15-15.1q-5.37-9.81-5.37-23.15t5.37-23.23a36.55,36.55,0,0,1,15-15.1,45.81,45.81,0,0,1,22.08-5.21q12.57,0,22,5.21A36.79,36.79,0,0,1,1508,233.31a41.62,41.62,0,0,1,5.14,20.77A41.13,41.13,0,0,1,1512.33,261.44Zm-26.44-25.3a20.8,20.8,0,0,0-14.49-5.36,21.27,21.27,0,0,0-14.72,5.36q-6,5.37-6.59,15.79h41.24Q1491.78,241.51,1485.89,236.14Zm8.35-44.3L1459,208.39V193.68l35.26-18.4Z"/><path d="M1565.37,186.32V299.76h-21.61V186.32Z"/><path d="M1621.94,186.32V299.76h-21.61V186.32Z"/><path d="M1708.56,218.82a27.5,27.5,0,0,1,10.88,13.64V214.83h21.47v84.93h-21.47V282a27.87,27.87,0,0,1-10.88,13.72q-7.66,5.15-18.4,5.14a36.42,36.42,0,0,1-19.31-5.22,35.11,35.11,0,0,1-13.42-15.1q-4.83-9.88-4.83-23.22t4.83-23.23a35.23,35.23,0,0,1,13.42-15.1,36.51,36.51,0,0,1,19.31-5.21Q1700.9,213.76,1708.56,218.82Zm-27.9,20.39q-6.14,6.58-6.13,18.09t6.13,18q6.12,6.53,16.25,6.52a21.4,21.4,0,0,0,16.17-6.67q6.36-6.68,6.36-17.86,0-11.34-6.36-18a21.39,21.39,0,0,0-16.17-6.66Q1686.79,232.62,1680.66,239.21Z"/><path d="M1810.05,218.28a33.45,33.45,0,0,1,17.47-4.67v23.14h-6.28q-23.76,0-23.76,22.08v40.93h-21.62V214.83h21.62v16.25A35.47,35.47,0,0,1,1810.05,218.28Z"/><path d="M391.14,120.27a6.62,6.62,0,0,1,6.61,6.62V362.65a6.62,6.62,0,0,1-6.61,6.62H146.37a6.63,6.63,0,0,1-6.62-6.62V126.89a6.63,6.63,0,0,1,6.62-6.62H391.14m0-21H146.37a27.63,27.63,0,0,0-27.62,27.62V362.65a27.63,27.63,0,0,0,27.62,27.62H391.14a27.62,27.62,0,0,0,27.61-27.62V126.89a27.62,27.62,0,0,0-27.61-27.62Z"/><path d="M232.85,289.11l-19.16-33.44H208.8v33.44H187.38V200.55H224q10.51,0,17.78,3.64a25.06,25.06,0,0,1,10.9,9.95,28.55,28.55,0,0,1,3.63,14.47A25.71,25.71,0,0,1,251,245q-5.32,6.76-15.47,9.27l21,34.82Zm-24-48.1h13.28q6.39,0,9.39-2.82t3-8.33c0-3.5-1-6.26-3.07-8.26s-5.16-3-9.33-3H208.8Z"/><path d="M335.79,208.57q11.08,8.9,14.34,24.05H327.46a20.74,20.74,0,0,0-7.71-9.64,21.51,21.51,0,0,0-12.34-3.51,18.79,18.79,0,0,0-15.15,6.89q-5.76,6.88-5.76,18.41t5.76,18.35A18.86,18.86,0,0,0,307.41,270a21.51,21.51,0,0,0,12.34-3.51,20.88,20.88,0,0,0,7.71-9.52h22.67q-3.25,15-14.34,24t-28,8.95a44.15,44.15,0,0,1-22.67-5.69,38.68,38.68,0,0,1-15.1-16,54.21,54.21,0,0,1,0-46.84,38.65,38.65,0,0,1,15.1-16,44.15,44.15,0,0,1,22.67-5.7Q324.7,199.68,335.79,208.57Z"/></svg>