<svg id="Capa_1" data-name="Capa 1" xmlns="http://www.w3.org/2000/svg" viewBox="0 0 1920 453"><defs><style>.cls-1{fill:#ddd;}</style></defs><title>Logo</title><path class="cls-1" d="M513,282.76,487.68,240.6h-9.51v42.16H456.56V174.53H497.8q18.85,0,28.74,9.2T536.43,208q0,12.27-6.82,20.54t-19.7,11l27,43.23Zm-34.8-57H496q18.54,0,18.55-16.4,0-7.82-4.53-12.19t-14-4.37H478.17Z"/><path class="cls-1" d="M645.43,244.44H583.19q.45,11.34,6.13,16.71a19.7,19.7,0,0,0,14.1,5.36q7.51,0,12.5-3.68a16.28,16.28,0,0,0,6.36-10h22.84a36.45,36.45,0,0,1-7.2,15.94,37.74,37.74,0,0,1-14.18,11,48.57,48.57,0,0,1-41.32-1.3,37.15,37.15,0,0,1-15-15.1Q562,253.64,562,240.3t5.37-23.23a36.55,36.55,0,0,1,15-15.1,45.81,45.81,0,0,1,22.08-5.21q12.57,0,22,5.21a36.79,36.79,0,0,1,14.56,14.34,41.62,41.62,0,0,1,5.14,20.77A41.13,41.13,0,0,1,645.43,244.44ZM619,219.14a20.76,20.76,0,0,0-14.48-5.36,21.27,21.27,0,0,0-14.72,5.36q-6,5.37-6.59,15.79h41.24Q624.88,224.51,619,219.14Z"/><path class="cls-1" d="M750.9,206.26q8.75,9.66,8.74,27.14v49.36H738.18V235.85q0-10.11-5.21-15.71t-14.26-5.6q-9.19,0-14.72,6t-5.52,17.17v45.07H676.86V197.83h21.61v17a27.06,27.06,0,0,1,11.12-13.42,33,33,0,0,1,17.86-4.82Q742.17,196.61,750.9,206.26Z"/><path class="cls-1" d="M845.64,201.82a27.58,27.58,0,0,1,10.89,13.64V197.83H878v84.93H856.53V265a27.94,27.94,0,0,1-10.89,13.72q-7.67,5.15-18.39,5.14a36.43,36.43,0,0,1-19.32-5.22,35.16,35.16,0,0,1-13.41-15.1q-4.83-9.88-4.83-23.22t4.83-23.23A35.27,35.27,0,0,1,807.93,202a36.52,36.52,0,0,1,19.32-5.21Q838,196.76,845.64,201.82Zm-27.9,20.39q-6.13,6.58-6.13,18.09t6.13,18q6.13,6.53,16.25,6.52a21.44,21.44,0,0,0,16.18-6.67q6.36-6.68,6.36-17.86,0-11.34-6.36-18A21.43,21.43,0,0,0,834,215.62Q823.88,215.62,817.74,222.21Z"/><path class="cls-1" d="M958.32,264.21v18.55H947q-14.26,0-21.85-6.89t-7.59-23V216.08h-11.8V197.83h11.8v-21h21.62v21h19v18.25h-19v37.1c0,4.08.82,6.95,2.45,8.58s4.4,2.45,8.28,2.45Z"/><path class="cls-1" d="M1050.69,202a38.2,38.2,0,0,1,15.56,15.1q5.67,9.88,5.67,23.23t-5.67,23.15a38.84,38.84,0,0,1-15.56,15.1,49.67,49.67,0,0,1-44.61,0,38.77,38.77,0,0,1-15.56-15.1q-5.68-9.81-5.68-23.15t5.68-23.23a38.14,38.14,0,0,1,15.56-15.1,50.35,50.35,0,0,1,44.61,0Zm-37.64,19.85q-6.28,6.38-6.28,18.48t6.28,18.47a21.66,21.66,0,0,0,30.66,0q6.29-6.36,6.29-18.47t-6.29-18.48a21.66,21.66,0,0,0-30.66,0Z"/><path class="cls-1" d="M1233.81,183.88q13.34,10.43,17.63,28.36h-22.69a29.66,29.66,0,0,0-11-13.79q-7.44-5.07-17.86-5.06a28.24,28.24,0,0,0-26.22,16.55,47.22,47.22,0,0,0,0,37.26,28.24,28.24,0,0,0,26.22,16.55q10.42,0,17.86-5.06a29.66,29.66,0,0,0,11-13.79h22.69q-4.29,17.93-17.63,28.36t-33.57,10.42q-15.49,0-27.37-7a47.47,47.47,0,0,1-18.39-19.55,61,61,0,0,1-6.52-28.51q0-16.1,6.52-28.67a47.61,47.61,0,0,1,18.31-19.55q11.81-7,27.45-7Q1220.47,173.46,1233.81,183.88Z"/><path class="cls-1" d="M1364.27,197.83v84.93h-21.61V265.59A27.07,27.07,0,0,1,1331.54,279a33,33,0,0,1-17.86,4.83q-14.72,0-23.45-9.66t-8.74-27V197.83H1303v46.91q0,10.13,5.21,15.72t14.11,5.59q9.35,0,14.87-6t5.52-17.17V197.83Z"/><path class="cls-1" d="M1478.33,244.44h-62.24q.47,11.34,6.13,16.71a19.7,19.7,0,0,0,14.1,5.36q7.52,0,12.5-3.68a16.28,16.28,0,0,0,6.36-10H1478a36.45,36.45,0,0,1-7.2,15.94,37.74,37.74,0,0,1-14.18,11,48.57,48.57,0,0,1-41.32-1.3,37.15,37.15,0,0,1-15-15.1q-5.37-9.81-5.37-23.15t5.37-23.23a36.55,36.55,0,0,1,15-15.1,45.81,45.81,0,0,1,22.08-5.21q12.57,0,22,5.21A36.79,36.79,0,0,1,1474,216.31a41.62,41.62,0,0,1,5.14,20.77A41.13,41.13,0,0,1,1478.33,244.44Zm-26.44-25.3a20.8,20.8,0,0,0-14.49-5.36,21.27,21.27,0,0,0-14.72,5.36q-6,5.37-6.59,15.79h41.24Q1457.78,224.51,1451.89,219.14Zm8.35-44.3L1425,191.39V176.68l35.26-18.4Z"/><path class="cls-1" d="M1531.37,169.32V282.76h-21.61V169.32Z"/><path class="cls-1" d="M1587.94,169.32V282.76h-21.61V169.32Z"/><path class="cls-1" d="M1674.56,201.82a27.5,27.5,0,0,1,10.88,13.64V197.83h21.47v84.93h-21.47V265a27.87,27.87,0,0,1-10.88,13.72q-7.66,5.15-18.4,5.14a36.42,36.42,0,0,1-19.31-5.22,35.11,35.11,0,0,1-13.42-15.1q-4.83-9.88-4.83-23.22t4.83-23.23a35.23,35.23,0,0,1,13.42-15.1,36.51,36.51,0,0,1,19.31-5.21Q1666.9,196.76,1674.56,201.82Zm-27.9,20.39q-6.14,6.58-6.13,18.09t6.13,18q6.12,6.53,16.25,6.52a21.4,21.4,0,0,0,16.17-6.67q6.36-6.68,6.36-17.86,0-11.34-6.36-18a21.39,21.39,0,0,0-16.17-6.66Q1652.79,215.62,1646.66,222.21Z"/><path class="cls-1" d="M1776.05,201.28a33.45,33.45,0,0,1,17.47-4.67v23.14h-6.28q-23.76,0-23.76,22.08v40.93h-21.62V197.83h21.62v16.25A35.47,35.47,0,0,1,1776.05,201.28Z"/><path class="cls-1" d="M357.14,103.27a6.62,6.62,0,0,1,6.61,6.62V345.65a6.62,6.62,0,0,1-6.61,6.62H112.37a6.63,6.63,0,0,1-6.62-6.62V109.89a6.63,6.63,0,0,1,6.62-6.62H357.14m0-21H112.37a27.63,27.63,0,0,0-27.62,27.62V345.65a27.63,27.63,0,0,0,27.62,27.62H357.14a27.62,27.62,0,0,0,27.61-27.62V109.89a27.62,27.62,0,0,0-27.61-27.62Z"/><path class="cls-1" d="M198.85,272.11l-19.16-33.44H174.8v33.44H153.38V183.55H190q10.51,0,17.78,3.64a25.06,25.06,0,0,1,10.9,9.95,28.55,28.55,0,0,1,3.63,14.47A25.71,25.71,0,0,1,217,228q-5.32,6.76-15.47,9.27l21,34.82Zm-24-48.1h13.28q6.39,0,9.39-2.82t3-8.33c0-3.5-1-6.26-3.07-8.26s-5.16-3-9.33-3H174.8Z"/><path class="cls-1" d="M301.79,191.57q11.08,8.9,14.34,24.05H293.46a20.74,20.74,0,0,0-7.71-9.64,21.51,21.51,0,0,0-12.34-3.51,18.79,18.79,0,0,0-15.15,6.89q-5.76,6.88-5.76,18.41t5.76,18.35A18.86,18.86,0,0,0,273.41,253a21.51,21.51,0,0,0,12.34-3.51,20.88,20.88,0,0,0,7.71-9.52h22.67q-3.25,15-14.34,24t-28,8.95a44.15,44.15,0,0,1-22.67-5.69,38.68,38.68,0,0,1-15.1-16,54.21,54.21,0,0,1,0-46.84,38.65,38.65,0,0,1,15.1-16,44.15,44.15,0,0,1,22.67-5.7Q290.7,182.68,301.79,191.57Z"/></svg>